<svg id="Layer_1" data-name="Layer 1" xmlns="http://www.w3.org/2000/svg" viewBox="0 0 191 71"><title>logo</title><path d="M82,49.45a.77.77,0,0,1-.75.75.71.71,0,0,1-.7-.48L78.66,45.3H68.49l-1.85,4.42a.68.68,0,0,1-.7.48.7.7,0,0,1-.55-.23.76.76,0,0,1-.2-.52.72.72,0,0,1,.07-.33L72.84,31.2a.73.73,0,0,1,.73-.52.76.76,0,0,1,.73.52l7.6,17.92A.72.72,0,0,1,82,49.45Zm-3.87-5.5-4.52-10.8-4.5,10.8Z"/><path d="M99.36,49.62a.49.49,0,0,1-.21.43,1.05,1.05,0,0,1-.61.15.71.71,0,0,1-.4-.1,1,1,0,0,1-.27-.3l-4.6-7.35H88.79v7a.75.75,0,0,1-.2.54.72.72,0,0,1-.55.21.73.73,0,0,1-.75-.75v-18a.72.72,0,0,1,.21-.55.76.76,0,0,1,.54-.2h4.77a6.82,6.82,0,0,1,3.23.75,5.52,5.52,0,0,1,2.23,2.1,5.92,5.92,0,0,1,.8,3.07,5.6,5.6,0,0,1-4.2,5.58L99.16,49A1.25,1.25,0,0,1,99.36,49.62Zm-6.55-8.67a5.3,5.3,0,0,0,2.45-.55A4.16,4.16,0,0,0,97,38.85a4.22,4.22,0,0,0,.61-2.25A4.33,4.33,0,0,0,97,34.31a4.22,4.22,0,0,0-1.69-1.57,5.21,5.21,0,0,0-2.45-.56h-4v8.77Z"/><path d="M118.17,30.86a.68.68,0,0,1-.49,1.16h-6.33V49.45a.75.75,0,1,1-1.5,0V32h-6.33a.68.68,0,1,1,0-1.35h14.15A.66.66,0,0,1,118.17,30.86Z"/><path d="M136.49,49.45a.77.77,0,0,1-.75.75.71.71,0,0,1-.7-.48l-1.85-4.42H123l-1.85,4.42a.68.68,0,0,1-.7.48.7.7,0,0,1-.55-.23.76.76,0,0,1-.2-.52.72.72,0,0,1,.07-.33l7.58-17.92a.73.73,0,0,1,.73-.52.76.76,0,0,1,.73.52l7.6,17.92A.72.72,0,0,1,136.49,49.45Zm-3.87-5.5-4.52-10.8-4.5,10.8Z"/><path d="M156.26,32.65a.6.6,0,0,1,.22.5.81.81,0,0,1-.2.54.68.68,0,0,1-.55.24,1,1,0,0,1-.62-.3,7.25,7.25,0,0,0-5-1.7A7.72,7.72,0,0,0,146,33.1a8.71,8.71,0,0,0-3,3.14,8.29,8.29,0,0,0-1.12,4.19,8.49,8.49,0,0,0,1.11,4.26,8.4,8.4,0,0,0,3,3.11,8.15,8.15,0,0,0,9.31-.68.63.63,0,0,1,.38-.12.76.76,0,0,1,.54.23.73.73,0,0,1,.24.55.77.77,0,0,1-.18.52,8.32,8.32,0,0,1-6.15,2.15,9.24,9.24,0,0,1-4.87-1.36,10.07,10.07,0,0,1-3.57-3.68,10.07,10.07,0,0,1,0-10,10,10,0,0,1,3.55-3.66,9.27,9.27,0,0,1,4.91-1.36A9.38,9.38,0,0,1,156.26,32.65Z"/><path d="M176.29,48.92a.72.72,0,0,1,.23.52.71.71,0,0,1-.23.54.74.74,0,0,1-.52.21h-12a.73.73,0,0,1-.75-.75v-18a.73.73,0,0,1,.75-.75h12a.74.74,0,0,1,.52.21.71.71,0,0,1,.23.54.77.77,0,0,1-.75.75H164.49v7.5h8.27a.73.73,0,0,1,.75.75.77.77,0,0,1-.21.55.71.71,0,0,1-.54.23h-8.27v7.5h11.27A.72.72,0,0,1,176.29,48.92Z"/><rect x="31.98" y="28.79" width="6.22" height="29.03"/><rect x="12.44" y="22.54" width="29.03" height="6.22" transform="translate(-10.24 26.57) rotate(-45)"/><rect x="43.33" y="18.8" width="6.22" height="20.01" transform="translate(-6.76 41.27) rotate(-45)"/></svg>